<svg xmlns="http://www.w3.org/2000/svg" viewBox="0 0 35.8 34.1"><defs><style>.cls-1{fill:#6c6c6c;}</style></defs><title>booking_calendar</title><g id="レイヤー_2" data-name="レイヤー 2"><g id="Layer_1" data-name="Layer 1"><g id="calendar"><path class="cls-1" d="M32.82,3.36H28V1.12a1.12,1.12,0,0,0-2.24,0V3.36H19V1.12a1.12,1.12,0,0,0-2.24,0V3.36H10.07V1.12a1.12,1.12,0,1,0-2.24,0V3.36H3a3,3,0,0,0-3,3V31.12a3,3,0,0,0,3,3H32.82a3,3,0,0,0,3-3V6.34A3,3,0,0,0,32.82,3.36Zm.75,27.76a.76.76,0,0,1-.75.75H3a.75.75,0,0,1-.74-.75V6.34A.75.75,0,0,1,3,5.59H7.83V7.83a1.12,1.12,0,0,0,2.24,0V5.59h6.71V7.83a1.12,1.12,0,0,0,2.24,0V5.59h6.71V7.83a1.12,1.12,0,1,0,2.24,0V5.59h4.85a.76.76,0,0,1,.75.75Z"/><rect class="cls-1" x="7.83" y="12.58" width="4.48" height="3.36"/><rect class="cls-1" x="7.83" y="18.17" width="4.48" height="3.36"/><rect class="cls-1" x="7.83" y="23.77" width="4.48" height="3.36"/><rect class="cls-1" x="15.66" y="23.77" width="4.48" height="3.36"/><rect class="cls-1" x="15.66" y="18.17" width="4.48" height="3.36"/><rect class="cls-1" x="15.66" y="12.58" width="4.48" height="3.36"/><rect class="cls-1" x="23.5" y="23.77" width="4.48" height="3.36"/><rect class="cls-1" x="23.5" y="18.17" width="4.48" height="3.36"/><rect class="cls-1" x="23.5" y="12.58" width="4.48" height="3.36"/></g></g></g></svg>