<svg 
 xmlns="http://www.w3.org/2000/svg"
 xmlns:xlink="http://www.w3.org/1999/xlink"
 width="12px" height="12px">
<path fill-rule="evenodd"  fill="rgb(108, 108, 108)"
 d="M2.836,11.000 L2.000,11.000 L2.000,10.000 L1.000,10.000 L1.000,9.164 L1.711,8.453 L3.547,10.289 L2.836,11.000 ZM6.922,3.750 C6.922,3.797 6.906,3.844 6.867,3.882 L2.633,8.117 C2.594,8.156 2.547,8.172 2.500,8.172 C2.398,8.172 2.328,8.101 2.328,8.000 C2.328,7.953 2.344,7.906 2.383,7.867 L6.617,3.633 C6.656,3.594 6.703,3.578 6.750,3.578 C6.852,3.578 6.922,3.648 6.922,3.750 ZM6.500,2.250 L-0.000,8.750 L-0.000,12.000 L3.250,12.000 L9.750,5.500 L6.500,2.250 ZM11.836,3.000 C11.836,2.734 11.727,2.476 11.547,2.289 L9.711,0.461 C9.523,0.273 9.266,0.164 9.000,0.164 C8.734,0.164 8.476,0.273 8.297,0.461 L7.000,1.750 L10.250,5.000 L11.547,3.703 C11.727,3.523 11.836,3.265 11.836,3.000 Z"/>
</svg>