<svg 
 xmlns="http://www.w3.org/2000/svg"
 xmlns:xlink="http://www.w3.org/1999/xlink"
 width="15px" height="11px">
<path fill-rule="evenodd"  fill="rgb(108, 108, 108)"
 d="M14.680,6.437 C14.680,6.086 14.281,6.000 14.000,6.000 L5.500,6.000 C4.812,6.000 3.890,6.422 3.437,6.953 L0.812,10.047 C0.687,10.187 0.570,10.375 0.570,10.562 C0.570,10.914 0.969,11.000 1.250,11.000 L9.750,11.000 C10.437,11.000 11.359,10.578 11.812,10.047 L14.437,6.953 C14.562,6.812 14.680,6.625 14.680,6.437 ZM12.000,3.750 C12.000,2.789 11.211,2.000 10.250,2.000 L6.000,2.000 L6.000,1.750 C6.000,0.789 5.211,-0.000 4.250,-0.000 L1.750,-0.000 C0.789,-0.000 -0.000,0.789 -0.000,1.750 L-0.000,9.250 C-0.000,9.312 0.008,9.383 0.008,9.445 L0.047,9.398 L2.680,6.305 C3.312,5.555 4.523,5.000 5.500,5.000 L12.000,5.000 L12.000,3.750 Z"/>
</svg>