<svg xmlns="http://www.w3.org/2000/svg" viewBox="0 0 95.36 95.36"><defs><style>.cls-1{fill:none;}.cls-2{fill:#000000;}</style></defs><title>icon5</title><g id="レイヤー_2" data-name="レイヤー 2"><g id="レイヤー_1-2" data-name="レイヤー 1"><rect class="cls-1" width="95.36" height="95.36"/><rect class="cls-2" x="74.36" y="17.04" width="12.08" height="60.4" rx="4.03"/><path class="cls-2" d="M68,22.84,22.74,35.58a1,1,0,0,0-.73,1v24h0v8a6.71,6.71,0,0,0,5.6,6.62l14.77,2.46a6.92,6.92,0,0,0,1.11.09,6.72,6.72,0,0,0,6.71-6.71V68.23l17.85,4.84a1,1,0,0,0,1.27-1V23.81A1,1,0,0,0,68,22.84ZM44.15,71.05a.63.63,0,0,1-.23.51.68.68,0,0,1-.55.15h0L28.61,69.25a.66.66,0,0,1-.56-.66V62.22l16.1,4.37ZM16,37.18H13a4,4,0,0,0-4,4V55.3a4,4,0,0,0,4,4h3a1,1,0,0,0,1-1V38.18A1,1,0,0,0,16,37.18Z"/></g></g></svg>