<?xml version="1.0" encoding="utf-8"?>
<!-- Generator: Adobe Illustrator 24.0.0, SVG Export Plug-In . SVG Version: 6.00 Build 0)  -->
<svg version="1.1" id="レイヤー_1" xmlns="http://www.w3.org/2000/svg" xmlns:xlink="http://www.w3.org/1999/xlink" x="0px"
	 y="0px" viewBox="0 0 95.4 95.4" style="enable-background:new 0 0 95.4 95.4;" xml:space="preserve">
<style type="text/css">
	.st0{fill:#666666;}
</style>
<title>icon1</title>
<g>
	<g>
		<path class="st0" d="M84.3,81.2H13.9c-2.1,0-3.8,1.7-3.8,3.8c0,2.1,1.7,3.8,3.8,3.8h70.4c2.1,0,3.8-1.7,3.8-3.8
			C88.1,82.9,86.4,81.2,84.3,81.2z"/>
		<path class="st0" d="M85,7H74.9c-2.8,0-5,2.3-5,5c0,2.8-2.3,5-5,5c-2.8,0-5-2.3-5-5c0-2.8-2.3-5-5-5H42.2c-2.8,0-5,2.3-5,5
			c0,2.8-2.3,5-5,5s-5-2.3-5-5c0-2.8-2.3-5-5-5H12c-2.8,0-5,2.3-5,5v57.8c0,2.8,2.3,5,5,5H85c2.8,0,5-2.3,5-5V12C90,9.3,87.7,7,85,7
			z M25.9,65.3c-2.8,0-5-2.3-5-5c0-2.8,2.3-5,5-5s5,2.3,5,5C30.9,63.1,28.6,65.3,25.9,65.3z M25.9,50.2c-2.8,0-5-2.3-5-5
			c0-2.8,2.3-5,5-5s5,2.3,5,5C30.9,48,28.6,50.2,25.9,50.2z M41,65.3c-2.8,0-5-2.3-5-5c0-2.8,2.3-5,5-5s5,2.3,5,5
			C46,63.1,43.7,65.3,41,65.3z M41,50.2c-2.8,0-5-2.3-5-5c0-2.8,2.3-5,5-5s5,2.3,5,5C46,48,43.7,50.2,41,50.2z M41,35.1
			c-2.8,0-5-2.3-5-5c0-2.8,2.3-5,5-5s5,2.3,5,5C46,32.9,43.7,35.1,41,35.1z M56,65.3c-2.8,0-5-2.3-5-5c0-2.8,2.3-5,5-5s5,2.3,5,5
			C61.1,63.1,58.8,65.3,56,65.3z M56,50.2c-2.8,0-5-2.3-5-5c0-2.8,2.3-5,5-5s5,2.3,5,5C61.1,48,58.8,50.2,56,50.2z M56,35.1
			c-2.8,0-5-2.3-5-5c0-2.8,2.3-5,5-5s5,2.3,5,5C61.1,32.9,58.8,35.1,56,35.1z M71.1,50.2c-2.8,0-5-2.3-5-5c0-2.8,2.3-5,5-5
			s5,2.3,5,5C76.2,48,73.9,50.2,71.1,50.2z M71.1,35.1c-2.8,0-5-2.3-5-5c0-2.8,2.3-5,5-5s5,2.3,5,5C76.2,32.9,73.9,35.1,71.1,35.1z"
			/>
	</g>
</g>
</svg>
