<svg xmlns="http://www.w3.org/2000/svg" viewBox="0 0 95.36 95.36"><defs><style>.cls-1{fill:none;}.cls-2{fill:#fff;}</style></defs><title>icon7</title><g id="レイヤー_2" data-name="レイヤー 2"><g id="レイヤー_1-2" data-name="レイヤー 1"><rect class="cls-1" width="95.36" height="95.36"/><path class="cls-2" d="M48.33,63.4a1,1,0,0,0-1.37,0l-7,6.11a1,1,0,0,0-.36.79v7.77a1,1,0,0,0,1.05,1.05h14a1,1,0,0,0,1-1.05V70.3a1,1,0,0,0-.36-.79ZM53.63,77h-12V70.77l6-5.2,6,5.2Z"/><path class="cls-2" d="M68.18,56.69a1,1,0,0,0-1.37,0l-5.46,4.74a1,1,0,0,0-.36.79v6a1,1,0,0,0,1,1H73a1,1,0,0,0,1-1v-6a1,1,0,0,0-.36-.79ZM71.9,67.22H63.08V62.7l4.41-3.84L71.9,62.7Z"/><path class="cls-2" d="M78.37,47.81,74,44a1,1,0,0,0-1.37,0l-4.4,3.83a1,1,0,0,0-.36.79v4.87a1,1,0,0,0,1,1.05h8.8a1,1,0,0,0,1-1.05V48.6A1,1,0,0,0,78.37,47.81Zm-1.72,4.62H69.93V49.07l3.36-2.92,3.36,2.92Z"/><path class="cls-2" d="M27.51,53.47V48.6a1,1,0,0,0-.36-.79L22.75,44a1,1,0,0,0-1.37,0L17,47.81a1,1,0,0,0-.36.79v4.87a1,1,0,0,0,1.05,1.05h8.8A1,1,0,0,0,27.51,53.47Zm-2.08-1H18.71V49.07l3.36-2.92,3.36,2.92Z"/><path class="cls-2" d="M28.27,56.69a1,1,0,0,0-1.37,0l-5.46,4.74a1,1,0,0,0-.36.79v6a1,1,0,0,0,1.05,1H33a1,1,0,0,0,1-1v-6a1,1,0,0,0-.36-.79ZM32,67.22H23.17V62.7l4.41-3.84L32,62.7Z"/><path class="cls-2" d="M36.51,43.43H32.45V40.9l2.63-2.28.77.63a1,1,0,1,0,1.33-1.6l-1.45-1.2a1,1,0,0,0-1.35,0l-3.65,3.18a1,1,0,0,0-.36.79v4a1,1,0,0,0,1,1h5.1a1,1,0,1,0,0-2.08Z"/><path class="cls-2" d="M64.88,44.47v-4a1.08,1.08,0,0,0-.35-.79l-3.66-3.18a1,1,0,0,0-1.35,0l-1.45,1.2a1,1,0,1,0,1.33,1.6l.77-.63L62.8,40.9v2.53H58.74a1,1,0,1,0,0,2.08h5.1A1,1,0,0,0,64.88,44.47Z"/><path class="cls-2" d="M55.5,20H55V17.28a1,1,0,0,0-1-1H41.31a1,1,0,0,0-1,1V20H39.8a1,1,0,0,0-1,1.05V56.24a1,1,0,1,0,2.08,0V22.09H54.45v4.16H51.53a1,1,0,0,0,0,2.09h2.92v4H51.53a1,1,0,1,0,0,2.08h2.92v3.9H51.53a1,1,0,0,0,0,2.08h2.92v3.9H51.53a1,1,0,0,0,0,2.08h2.92v9.83a1,1,0,1,0,2.09,0V21.05A1,1,0,0,0,55.5,20ZM42.35,18.32H52.92V20H42.35Z"/><path class="cls-2" d="M44.7,51v5.26a1,1,0,1,0,2.09,0V52h1.72v4.22a1,1,0,1,0,2.08,0V51a1,1,0,0,0-1-1h-3.8A1,1,0,0,0,44.7,51Z"/><path class="cls-2" d="M47.5,28.34h.56a1,1,0,0,0,0-2.09H47.5a1,1,0,0,0,0,2.09Z"/><path class="cls-2" d="M43.19,28.34h.55a1,1,0,1,0,0-2.09h-.55a1,1,0,0,0,0,2.09Z"/><path class="cls-2" d="M47.5,34.45h.56a1,1,0,0,0,0-2.08H47.5a1,1,0,1,0,0,2.08Z"/><path class="cls-2" d="M43.19,34.45h.55a1,1,0,1,0,0-2.08h-.55a1,1,0,1,0,0,2.08Z"/><path class="cls-2" d="M47.5,40.43h.56a1,1,0,0,0,0-2.08H47.5a1,1,0,0,0,0,2.08Z"/><path class="cls-2" d="M43.19,40.43h.55a1,1,0,1,0,0-2.08h-.55a1,1,0,0,0,0,2.08Z"/><path class="cls-2" d="M47.5,46.41h.56a1,1,0,0,0,0-2.08H47.5a1,1,0,0,0,0,2.08Z"/><path class="cls-2" d="M43.19,46.41h.55a1,1,0,1,0,0-2.08h-.55a1,1,0,0,0,0,2.08Z"/></g></g></svg>