<svg xmlns="http://www.w3.org/2000/svg" viewBox="0 0 95.36 95.36"><defs><style>.cls-1{fill:none;}.cls-2{fill:#6c6c6c;}</style></defs><title>icon3</title><g id="レイヤー_2" data-name="レイヤー 2"><g id="レイヤー_1-2" data-name="レイヤー 1"><rect class="cls-1" width="95.36" height="95.36"/><path class="cls-2" d="M84.48,50.81,81.92,37a6.73,6.73,0,0,0-6.61-5.49H69.68A6.72,6.72,0,0,0,63.08,37a13,13,0,0,1,.49,1.75l3.07,16.52A8.94,8.94,0,0,1,65.82,61a.89.89,0,0,1,0,.14l1,12.71a3.36,3.36,0,0,0,3.35,3.09h4.55a3.36,3.36,0,0,0,3.35-3.09l1-12.71a3.41,3.41,0,0,1,.58-1.63L84,53.33A3.37,3.37,0,0,0,84.48,50.81Zm-62.1-24a7.92,7.92,0,1,0-7.92-7.92A7.91,7.91,0,0,0,22.38,26.79Zm50.34,0a7.92,7.92,0,1,0-7.92-7.92A7.92,7.92,0,0,0,72.72,26.79ZM25,31.54H19.35A6.72,6.72,0,0,0,12.74,37L10.17,50.81a3.37,3.37,0,0,0,.54,2.52l4.22,6.13a3.22,3.22,0,0,1,.58,1.63l1,12.71a3.35,3.35,0,0,0,3.34,3.09h4.55a3.35,3.35,0,0,0,3.35-3.09l1-12.71a.89.89,0,0,1,0-.14A8.94,8.94,0,0,1,28,55.28l3.08-16.52A13,13,0,0,1,31.58,37,6.72,6.72,0,0,0,25,31.54Z"/><path class="cls-2" d="M47.6,27.42a9.5,9.5,0,1,0-9.5-9.5A9.49,9.49,0,0,0,47.6,27.42ZM61.7,56.2,58.62,39.68A8.06,8.06,0,0,0,50.7,33.1H44A8,8,0,0,0,36,39.68L33,56.2a4.08,4.08,0,0,0,.64,3l5.06,7.35a4.07,4.07,0,0,1,.7,2l1.23,15.23a4,4,0,0,0,4,3.71h5.46a4,4,0,0,0,4-3.71L55.3,68.53a4,4,0,0,1,.69-2l5.06-7.35A4,4,0,0,0,61.7,56.2Z"/></g></g></svg>