<?xml version="1.0" encoding="utf-8"?>
<!-- Generator: Adobe Illustrator 24.0.0, SVG Export Plug-In . SVG Version: 6.00 Build 0)  -->
<svg version="1.1" id="レイヤー_1" xmlns="http://www.w3.org/2000/svg" xmlns:xlink="http://www.w3.org/1999/xlink" x="0px"
	 y="0px" viewBox="0 0 95.4 95.4" style="enable-background:new 0 0 95.4 95.4;" xml:space="preserve">
<style type="text/css">
	.st0{fill:#666666;}
</style>
<title>icon1</title>
<g>
	<g>
		<path class="st0" d="M85,7H74.9c-2.8,0-5,2.3-5,5c0,2.8-2.3,5-5,5c-2.8,0-5-2.3-5-5c0-2.8-2.3-5-5-5H42.2c-2.8,0-5,2.3-5,5
			c0,2.8-2.3,5-5,5c-2.8,0-5-2.3-5-5c0-2.8-2.3-5-5-5H12c-2.8,0-5,2.3-5,5v57.8c0,2.8,2.3,5,5,5H85c2.8,0,5-2.3,5-5V12.1
			C90,9.3,87.7,7,85,7z M28.7,29.9c4,0,7.3,3.3,7.3,7.3s-3.3,7.3-7.3,7.3c-4,0-7.3-3.3-7.3-7.3S24.7,29.9,28.7,29.9z M41,58.3
			c0,1-0.7,1.8-1.7,1.8H18.2c-0.9,0-1.7-0.8-1.7-1.8v-1.7c0-3.3,2.5-5.9,5.5-5.9h13.4c3,0,5.5,2.7,5.5,5.9V58.3z M74.9,56.7H52.3
			c-1.7,0-3.1-1.4-3.1-3.1s1.4-3.1,3.1-3.1h22.6c1.7,0,3.1,1.4,3.1,3.1S76.6,56.7,74.9,56.7z M74.9,44.1H52.3
			c-1.7,0-3.1-1.4-3.1-3.1c0-1.7,1.4-3.1,3.1-3.1h22.6c1.7,0,3.1,1.4,3.1,3.1C78.1,42.7,76.6,44.1,74.9,44.1z"/>
		<path class="st0" d="M82.5,81.2H12c-2.1,0-3.8,1.7-3.8,3.8c0,2.1,1.7,3.8,3.8,3.8h70.4c2.1,0,3.8-1.7,3.8-3.8
			C86.2,82.9,84.5,81.2,82.5,81.2z"/>
	</g>
</g>
</svg>
