<svg xmlns="http://www.w3.org/2000/svg" viewBox="0 0 95.36 95.36"><defs><style>.cls-1{fill:none;}.cls-2{fill:#fff;}</style></defs><title>icon1</title><g id="レイヤー_2" data-name="レイヤー 2"><g id="レイヤー_1-2" data-name="レイヤー 1"><rect class="cls-1" width="95.36" height="95.36"/><path class="cls-2" d="M50.69,83.1,68.55,45.29V7.66a5,5,0,0,0-5-5.05H8a5,5,0,0,0-5,5.05V78.32a5,5,0,0,0,5,5H50.59C50.63,83.28,50.65,83.19,50.69,83.1ZM42.05,15.86H54.67a3.16,3.16,0,0,1,0,6.31H42.05a3.16,3.16,0,0,1,0-6.31Zm0,12.62H54.67a3.16,3.16,0,0,1,0,6.31H42.05a3.16,3.16,0,0,1,0-6.31ZM15.55,17.75a2.52,2.52,0,0,1,2.53-2.52H28.17a2.52,2.52,0,0,1,2.52,2.52V30.37a2.52,2.52,0,0,1-2.52,2.52H18.08a2.52,2.52,0,0,1-2.53-2.52ZM16.82,41.1H54.67a3.15,3.15,0,0,1,0,6.3H16.82a3.15,3.15,0,1,1,0-6.3Zm0,12.61H54.67a3.16,3.16,0,0,1,0,6.31H16.82a3.16,3.16,0,1,1,0-6.31ZM39.53,72.64H16.82a3.16,3.16,0,1,1,0-6.31H39.53a3.16,3.16,0,0,1,0,6.31Z"/><path class="cls-2" d="M64.61,86.42,92,28.6a4.87,4.87,0,1,0-8.8-4.16L55.8,82.26V92.74Z"/></g></g></svg>