<svg xmlns="http://www.w3.org/2000/svg" viewBox="0 0 95.36 95.36"><defs><style>.cls-1{fill:none;}.cls-2{fill:#fff;}</style></defs><title>icon8</title><g id="レイヤー_2" data-name="レイヤー 2"><g id="レイヤー_1-2" data-name="レイヤー 1"><rect class="cls-1" width="95.36" height="95.36"/><path class="cls-2" d="M68.92,23.48l3.7,1.2-54,27.61a.88.88,0,0,0-.39,1.19.89.89,0,0,0,.79.49,1,1,0,0,0,.41-.1l54-27.61L72.23,30a.89.89,0,0,0,.57,1.11.92.92,0,0,0,.28.05.88.88,0,0,0,.84-.62l1.85-5.73a.88.88,0,0,0-.57-1.12l-5.73-1.85a.89.89,0,1,0-.55,1.69Z"/><path class="cls-2" d="M78.62,73.91h-2.2V67.42a.89.89,0,0,0-.89-.89h-2V64.59h2a.88.88,0,0,0,.89-.88V45.1a.89.89,0,0,0-.89-.89h-2V42.27h2a.88.88,0,0,0,.89-.88V37.72a.89.89,0,0,0-.89-.89H61.26a.89.89,0,0,0-.89.89V40.5h-.81a.89.89,0,0,0-.89.89V45.1a.89.89,0,0,0,.89.89h.81V62.82h-.81a.89.89,0,0,0-.89.89v3.71a.89.89,0,0,0,.89.89h.81v5.6H54.9v-5.6h.81a.89.89,0,0,0,.89-.89V63.71a.89.89,0,0,0-.89-.89H54.9V57.14h.81a.89.89,0,0,0,.89-.89V52.54a.89.89,0,0,0-.89-.89H54.9V48.87A.89.89,0,0,0,54,48H39.74a.89.89,0,0,0-.89.89v3.67a.89.89,0,0,0,.89.89h2v1.93h-2a.89.89,0,0,0-.89.89v7.46a.88.88,0,0,0,.89.88h2v1.94h-2a.89.89,0,0,0-.89.89v6.49H35.31V67.42a.89.89,0,0,0-.89-.89h-2V64.59h2a.88.88,0,0,0,.89-.88V60a.89.89,0,0,0-.89-.89H20.15a.88.88,0,0,0-.88.89v2.78h-.82a.88.88,0,0,0-.88.89v3.71a.88.88,0,0,0,.88.89h.82v5.6H16.73a1,1,0,1,0,0,1.9H78.62a.95.95,0,1,0,0-1.9ZM71.84,72v1.92H70.56V72Zm1.26,1.92V72h1.54v1.92Zm1.54-5.6v1.9H62.15v-1.9H74.64Zm-14.19-26H62v.95a.63.63,0,1,0,1.26,0v-.95h1.28v1.94H60.45ZM71.7,44.21H68.39V42.27H71.7Zm-4.58,0H65.85V42.27h1.27Zm4.72,18.61H70.56v-1.9h1.28Zm-9.69-1.9h4.6v1a.64.64,0,0,0,.64.64.63.63,0,0,0,.63-.64v-1h1.27v1.9H62.15Zm0-1.77v-2H74.64v2Zm5.24-4.1a.63.63,0,0,0,.63-.63v-1h1.27v2H62.15v-2h4.6v1A.64.64,0,0,0,67.39,55.05Zm7.25-1.62v2H73.1v-2Zm-2.8,2H70.56v-2h1.28Zm2.8-3.75H62.15v-2H74.64ZM60.45,64.59H71.7v1.94H60.45Zm14.19-1.77H73.1v-1.9h1.54Zm0-16.83v1.9H62.15V46H74.64Zm0-7.39v1.9H62.15V38.6ZM62.15,72h4.6v1a.64.64,0,0,0,.64.63A.63.63,0,0,0,68,73V72h1.27v1.92H62.15ZM43.57,66.53V64.59H54.82v1.94H43.57Zm0-13.1h1.35v1a.63.63,0,0,0,.63.63.64.64,0,0,0,.64-.63v-1h1.27v1.93H43.57Zm5.16,0H50v1.93H48.73Zm2.54,0h3.55v1.93H51.27Zm-5.1,9a.64.64,0,0,0,.63-.64v-.89h1.28V62.8H40.63V60.92h4.9v.89A.64.64,0,0,0,46.17,62.45Zm4.45.35H49.34V60.92h1.28Zm1.27-1.88h1.23V62.8H51.89Zm-1.27,7.39v1.9H49.34v-1.9Zm1.27,0h1.23v1.9H51.89ZM40.63,51.65V49.76H53.12v1.89H40.63Zm2,5.49H53.12v1.91H40.63V57.14Zm0,11.17h2.85v1a.64.64,0,0,0,.64.63.63.63,0,0,0,.63-.63v-1h1.28v1.9H40.63v-1.9Zm-2,3.68H53.12v1.92H40.63Zm-10,0v1.92H29.36V72Zm1.27,1.92V72h1.63v1.92Zm1.63-5.6v1.9H21v-1.9h12.5Zm-14.2-3.72h1.38v1a.63.63,0,0,0,1.26,0v-1h1.28v1.94H19.34ZM30.6,66.53H27.07V64.59H30.6Zm-4.8,0H24.53V64.59H25.8Zm7.74-5.61v1.9H21v-1.9ZM21,72h4.51v1a.64.64,0,0,0,.64.63.63.63,0,0,0,.63-.63V72H28.1v1.92H21Z"/><path class="cls-2" d="M30.1,22.11a.88.88,0,0,0,.89-.88v-.8a.89.89,0,0,0-1.77,0v.8A.87.87,0,0,0,30.1,22.11Z"/><path class="cls-2" d="M30.1,27.55a.89.89,0,0,0,.89-.89v-.79a.89.89,0,1,0-1.77,0v.79A.88.88,0,0,0,30.1,27.55Z"/><path class="cls-2" d="M27,24.44h.79a.89.89,0,0,0,0-1.78H27a.89.89,0,0,0,0,1.78Z"/><path class="cls-2" d="M32.42,24.44h.8a.89.89,0,0,0,0-1.78h-.8a.89.89,0,0,0,0,1.78Z"/><path class="cls-2" d="M54,23.69a.88.88,0,0,0,.89-.88V22a.89.89,0,1,0-1.78,0v.8A.88.88,0,0,0,54,23.69Z"/><path class="cls-2" d="M54,29.13a.89.89,0,0,0,.89-.89v-.79a.89.89,0,1,0-1.78,0v.79A.89.89,0,0,0,54,29.13Z"/><path class="cls-2" d="M50.9,26h.79a.89.89,0,1,0,0-1.77H50.9a.89.89,0,1,0,0,1.77Z"/><path class="cls-2" d="M56.33,26h.79a.89.89,0,1,0,0-1.77h-.79a.89.89,0,1,0,0,1.77Z"/><path class="cls-2" d="M21,36.91a.89.89,0,0,0,.89-.89v-.79a.89.89,0,0,0-1.78,0V36A.89.89,0,0,0,21,36.91Z"/><path class="cls-2" d="M21,42.34a.88.88,0,0,0,.89-.88v-.8a.89.89,0,0,0-1.78,0v.8A.88.88,0,0,0,21,42.34Z"/><path class="cls-2" d="M17.91,39.23h.79a.89.89,0,1,0,0-1.78h-.79a.89.89,0,0,0,0,1.78Z"/><path class="cls-2" d="M23.34,39.23h.79a.89.89,0,1,0,0-1.78h-.79a.89.89,0,0,0,0,1.78Z"/><path class="cls-2" d="M32.6,38.28a1.14,1.14,0,1,0,0-2.27,1.14,1.14,0,0,0,0,2.27Z"/></g></g></svg>