<svg xmlns="http://www.w3.org/2000/svg" viewBox="0 0 95.36 95.36"><defs><style>.cls-1{fill:none;}.cls-2{fill:#6c6c6c;}</style></defs><title>icon4</title><g id="レイヤー_2" data-name="レイヤー 2"><g id="レイヤー_1-2" data-name="レイヤー 1"><rect class="cls-1" width="95.36" height="95.36"/><path class="cls-2" d="M93.1,34.45,76.3,16.62a1,1,0,0,0-1.42,0l-7.06,6.65a1,1,0,0,0,0,1.42l16.8,17.83a1,1,0,0,0,1.42,0l7.06-6.65A1,1,0,0,0,93.1,34.45Zm-6.14,2a2.19,2.19,0,1,1,.09-3.1A2.19,2.19,0,0,1,87,36.47ZM19.28,19.06a1,1,0,0,0-1.41.18L2.2,39.41a1,1,0,0,0,.17,1.41l7.69,6a1,1,0,0,0,1.41-.18L27.15,26.45A1,1,0,0,0,27,25Zm-7.37,21a2.22,2.22,0,0,1-3.1.39,2.21,2.21,0,1,1,3.1-.39Z"/><path class="cls-2" d="M70.22,59.63,53,46.18l-3.14,2.87c-4.44,4-8.44,5.06-11.45,5.06a12.51,12.51,0,0,1-2.12-.18,11.81,11.81,0,0,1-8.22-5.65,5.92,5.92,0,0,1,1.1-7.62L41.54,29.42a8,8,0,0,0-4.88-1.67,8,8,0,0,0-6.38,3.12L18.2,46.48A6.06,6.06,0,0,0,17,50.94l.78,6.34a6,6,0,0,0,2.27,4L41.2,77.81a3.23,3.23,0,0,0,4.39-.37l1-1a3.24,3.24,0,0,0-.31-4.68l3.55,3a3.25,3.25,0,0,0,2.09.76,3.29,3.29,0,0,0,2.26-.91l1.09-1.06a3.25,3.25,0,0,0-.17-4.83l2.62,2.19a3.28,3.28,0,0,0,2.08.75A3.23,3.23,0,0,0,62,70.67l1-.94A3.26,3.26,0,0,0,62.86,65l1.74,1.5a3.26,3.26,0,0,0,4.62-.37l1.5-1.81A3.24,3.24,0,0,0,70.22,59.63Zm8.42-16.1L64.1,28.69a4.06,4.06,0,0,0-2.36-1.17l-7.44-1a4.07,4.07,0,0,0-3.23,1l-1.75,1.6L32.57,44.38a.93.93,0,0,0-.23,1.24l.1.18A6.77,6.77,0,0,0,37.15,49c2.89.49,6.12-.76,9.33-3.65l6.26-5.73L72.45,55l6.14-5.76A4,4,0,0,0,78.64,43.53Z"/></g></g></svg>