<svg xmlns="http://www.w3.org/2000/svg" viewBox="0 0 95.36 95.36"><defs><style>.cls-1{fill:none;}.cls-2{fill:#fff;}</style></defs><title>icon6</title><g id="レイヤー_2" data-name="レイヤー 2"><g id="レイヤー_1-2" data-name="レイヤー 1"><rect class="cls-1" width="95.36" height="95.36"/><path class="cls-2" d="M75.7,89.65h-56a1.12,1.12,0,1,1,0-2.24h56a1.12,1.12,0,0,1,0,2.24Z"/><path class="cls-2" d="M46.68,19.94a7,7,0,1,0,7,7A7,7,0,0,0,46.68,19.94Zm0,12.12a5.16,5.16,0,1,1,5.16-5.16A5.16,5.16,0,0,1,46.68,32.06Z"/><path class="cls-2" d="M40,44.17l11.23-2.11a1.28,1.28,0,0,0,.41-1.83s-.14-.41-1.77-.14l-9.74,2L27.86,38.05S25.34,37.5,26,34.51L34.53,14l1.91-4.49s.47-2,1.7-1.56L40.93,9a1.62,1.62,0,0,1,.68,2.05s-.34,1.63-2.31.88l-1.57-.54s-1.29-.55-1.29.75c0,0-.14.34,1,1l1.43.61s2.59.89,3.74-1.09c0,0,1.77-2.31.48-4.35L39,6.05s-2.79-1.23-3.74,1l-11,26.21S23,37.37,25.27,39l3.07,1.43,10,3.4Z"/><path class="cls-2" d="M29.16,31.21l10.28,3.61s1.42.3,1.7-.45c0,0,.4-1-1.09-1.43l-9.74-3.33s-1.09-.48-1.43.4A.92.92,0,0,0,29.16,31.21Z"/><path class="cls-2" d="M28.13,35.12s-1.09-.27-.41-1.36a1.9,1.9,0,0,1,1.77-.07L38.68,37a5,5,0,0,0,3-.07l10.28-2s3.06-.62,3.2,1.83l.24,20.07,3,27.71s.3,4.72-4.53,4.24c0,0-3.13.07-3.54-3.88l-3.41-20L44.34,85.09s-.21,4.5-5,3.61c0,0-4.66-.25-3.16-6.37L39.44,58l.09-2.53-.32-9.25a1.08,1.08,0,0,1,1.18-1s.88-.07.68,1.49l.13,10.9L39.57,69.77,38.14,82.1l-.14,2s-.47,2.79,2.25,2.59a2.28,2.28,0,0,0,2.38-2.18L45.56,63s.07-2.73,2.11-2.11c0,0,.48-.28.95,4.08l3.27,18.79s-.34,2.66,1.64,3c0,0,3,.73,3.06-2.2l-3-26.6-.13-1.3-.14-18.92s.36-1.62-1.69-1L41.54,39A6,6,0,0,1,37,38.36Z"/></g></g></svg>