<svg xmlns="http://www.w3.org/2000/svg" viewBox="0 0 24.77 37.16"><defs><style>.cls-1{fill:#716c6c;}</style></defs><title>icon12</title><g id="レイヤー_2" data-name="レイヤー 2"><g id="Layer_1" data-name="Layer 1"><polygon class="cls-1" points="7.74 29.42 10.84 29.42 10.84 37.16 13.94 37.16 13.94 29.42 17.03 29.42 17.03 26.32 7.74 26.32 7.74 29.42"/><path class="cls-1" d="M12.39,0A12.39,12.39,0,1,0,24.77,12.39,12.39,12.39,0,0,0,12.39,0Zm0,7.74a1.55,1.55,0,1,1-1.55,1.55A1.56,1.56,0,0,1,12.39,7.74ZM6.19,9.29a1.55,1.55,0,1,1,1.55,1.55A1.56,1.56,0,0,1,6.19,9.29Zm3.1,6.19a1.55,1.55,0,1,1,1.55-1.54A1.55,1.55,0,0,1,9.29,15.48Zm3.1,4.65a1.55,1.55,0,1,1,1.55-1.55A1.54,1.54,0,0,1,12.39,20.13Zm3.09-4.65A1.55,1.55,0,1,1,17,13.94,1.54,1.54,0,0,1,15.48,15.48ZM17,10.84a1.55,1.55,0,1,1,1.55-1.55A1.55,1.55,0,0,1,17,10.84Z"/></g></g></svg>