<svg xmlns="http://www.w3.org/2000/svg" viewBox="0 0 95.36 95.36"><defs><style>.cls-1{fill:none;}.cls-2{fill:#fff;}</style></defs><title>icon9</title><g id="レイヤー_2" data-name="レイヤー 2"><g id="レイヤー_1-2" data-name="レイヤー 1"><rect class="cls-1" width="95.36" height="95.36"/><path class="cls-2" d="M51.09,47.25a4.75,4.75,0,1,0-6.66,0,5.7,5.7,0,0,0-3.09,5.07v2.94a1,1,0,1,0,2,0V52.32a3.7,3.7,0,0,1,3.7-3.7h1.42a3.7,3.7,0,0,1,3.7,3.7v2.94a1,1,0,1,0,2,0V52.32A5.72,5.72,0,0,0,51.09,47.25Zm-3.33-6.1A2.73,2.73,0,1,1,45,43.88,2.73,2.73,0,0,1,47.76,41.15Z"/><path class="cls-2" d="M77.25,46.67H63.07A15.36,15.36,0,0,0,48.68,32.38V18.11a1,1,0,1,0-2,0V32.39A15.37,15.37,0,0,0,32.45,46.67H18.11a1,1,0,1,0,0,2H32.44A15.38,15.38,0,0,0,46.67,63V77.25a1,1,0,0,0,2,0V63A15.37,15.37,0,0,0,63.07,48.68H77.25a1,1,0,0,0,0-2ZM48.68,61V60a1,1,0,1,0-2,0v1A13.36,13.36,0,0,1,34.46,48.68h1.08a1,1,0,1,0,0-2H34.46A13.36,13.36,0,0,1,46.67,34.41v1.13a1,1,0,1,0,2,0V34.4A13.34,13.34,0,0,1,61.05,46.67H59.68a1,1,0,1,0,0,2h1.37A13.35,13.35,0,0,1,48.68,61Z"/><path class="cls-2" d="M19.83,42.81a1,1,0,0,0,1-1V39.6a2.54,2.54,0,0,1,2.54-2.54h1.07A2.54,2.54,0,0,1,27,39.6v2.21a1,1,0,0,0,2,0V39.6a4.53,4.53,0,0,0-2.18-3.88,3.82,3.82,0,1,0-5.8,0,4.55,4.55,0,0,0-2.18,3.88v2.21A1,1,0,0,0,19.83,42.81Zm4.08-11.38a1.81,1.81,0,1,1-1.81,1.81A1.81,1.81,0,0,1,23.91,31.43Z"/><path class="cls-2" d="M33,31.43a1,1,0,0,0,1-1V28.21a2.54,2.54,0,0,1,2.54-2.53h1.07a2.54,2.54,0,0,1,2.54,2.53v2.22a1,1,0,0,0,2,0V28.21A4.53,4.53,0,0,0,40,24.34a3.78,3.78,0,0,0,.92-2.48,3.82,3.82,0,1,0-6.72,2.48A4.55,4.55,0,0,0,32,28.21v2.22A1,1,0,0,0,33,31.43Zm4.07-11.38a1.81,1.81,0,1,1-1.8,1.81A1.81,1.81,0,0,1,37.05,20.05Z"/><path class="cls-2" d="M67.44,42.81a1,1,0,0,0,1-1V39.6A2.54,2.54,0,0,1,71,37.06h1.07a2.54,2.54,0,0,1,2.54,2.54v2.21a1,1,0,0,0,2,0V39.6a4.55,4.55,0,0,0-2.18-3.88,3.82,3.82,0,1,0-6.72-2.48,3.76,3.76,0,0,0,.92,2.48,4.54,4.54,0,0,0-2.19,3.88v2.21A1,1,0,0,0,67.44,42.81Zm4.08-11.38a1.81,1.81,0,1,1-1.81,1.81A1.82,1.82,0,0,1,71.52,31.43Z"/><path class="cls-2" d="M26.81,56.73a3.82,3.82,0,1,0-5.8,0,4.56,4.56,0,0,0-2.18,3.88v2.21a1,1,0,1,0,2,0V60.61a2.54,2.54,0,0,1,2.54-2.54h1.07A2.54,2.54,0,0,1,27,60.61v2.21a1,1,0,1,0,2,0V60.61A4.54,4.54,0,0,0,26.81,56.73Zm-2.9-4.29a1.81,1.81,0,1,1-1.81,1.81A1.82,1.82,0,0,1,23.91,52.44Z"/><path class="cls-2" d="M74.42,56.73a3.82,3.82,0,1,0-6.72-2.48,3.76,3.76,0,0,0,.92,2.48,4.55,4.55,0,0,0-2.19,3.88v2.21a1,1,0,0,0,2,0V60.61A2.54,2.54,0,0,1,71,58.07h1.07a2.54,2.54,0,0,1,2.54,2.54v2.21a1,1,0,1,0,2,0V60.61A4.56,4.56,0,0,0,74.42,56.73Zm-2.9-4.29a1.81,1.81,0,1,1-1.81,1.81A1.82,1.82,0,0,1,71.52,52.44Z"/><path class="cls-2" d="M54.3,31.43a1,1,0,0,0,1-1V28.21a2.54,2.54,0,0,1,2.54-2.53h1.07a2.54,2.54,0,0,1,2.54,2.53v2.22a1,1,0,0,0,2,0V28.21a4.53,4.53,0,0,0-2.19-3.87,3.78,3.78,0,0,0,.92-2.48,3.82,3.82,0,1,0-6.72,2.48,4.55,4.55,0,0,0-2.18,3.87v2.22A1,1,0,0,0,54.3,31.43Zm4.07-11.38a1.81,1.81,0,1,1-1.8,1.81A1.81,1.81,0,0,1,58.37,20.05Z"/><path class="cls-2" d="M40,69.43A3.78,3.78,0,0,0,40.87,67a3.82,3.82,0,1,0-6.72,2.48A4.55,4.55,0,0,0,32,73.3v2.22a1,1,0,0,0,2,0V73.3a2.54,2.54,0,0,1,2.54-2.53h1.07a2.54,2.54,0,0,1,2.54,2.53v2.22a1,1,0,0,0,2,0V73.3A4.53,4.53,0,0,0,40,69.43Zm-2.9-4.29A1.81,1.81,0,1,1,35.25,67,1.81,1.81,0,0,1,37.05,65.14Z"/><path class="cls-2" d="M61.27,69.43A3.78,3.78,0,0,0,62.19,67a3.82,3.82,0,1,0-6.72,2.48,4.55,4.55,0,0,0-2.18,3.87v2.22a1,1,0,0,0,2,0V73.3a2.54,2.54,0,0,1,2.54-2.53h1.07a2.54,2.54,0,0,1,2.54,2.53v2.22a1,1,0,0,0,2,0V73.3A4.53,4.53,0,0,0,61.27,69.43Zm-2.9-4.29A1.81,1.81,0,1,1,56.57,67,1.81,1.81,0,0,1,58.37,65.14Z"/></g></g></svg>