<svg xmlns="http://www.w3.org/2000/svg" viewBox="0 0 31.94 39.66"><defs><style>.cls-1{fill:#999;}</style></defs><title>login2</title><g id="レイヤー_2" data-name="レイヤー 2"><g id="_饑x5F_1" data-name="—饑x5F 1"><path class="cls-1" d="M28.46,13.12H26.05v-3a10.1,10.1,0,0,0-20.19,0v3H3.44A3.45,3.45,0,0,0,0,16.55V36.2a3.45,3.45,0,0,0,3.44,3.46h25a3.47,3.47,0,0,0,3.48-3.46V16.55A3.47,3.47,0,0,0,28.46,13.12Zm-18-3a5.53,5.53,0,0,1,11.06,0v3H10.42Zm7.4,20.48v5a.38.38,0,0,1-.39.37H15a.37.37,0,0,1-.36-.37v-5a4.41,4.41,0,1,1,3.16,0Z"/></g></g></svg>