<svg xmlns="http://www.w3.org/2000/svg" viewBox="0 0 658.7 157.15"><defs><style>.cls-1{fill:#e60012;}.cls-2,.cls-3{fill:#16902e;}.cls-3{isolation:isolate;}</style></defs><title>logo</title><g id="レイヤー_2" data-name="レイヤー 2"><g id="レイヤー_1-2" data-name="レイヤー 1"><path class="cls-1" d="M122.18,67.26a7.32,7.32,0,0,1,2.78.53,7.11,7.11,0,0,1,2.24,1.46,6.5,6.5,0,0,1,1.46,2.15,6.43,6.43,0,0,1,.53,2.62,11.72,11.72,0,0,1-.3,2.78,8.19,8.19,0,0,1-1,2.37A12.68,12.68,0,0,1,126,81.51c-.78.79-1.75,1.67-2.88,2.66-.68.57-1.36,1.11-2,1.63s-1.36,1-2,1.6-1.3,1.12-1.92,1.74a16.21,16.21,0,0,0-1.75,2.06h11.1l-1.11,5.08H108.21a16.21,16.21,0,0,1,1.15-4.46,15.18,15.18,0,0,1,2-3.42,19.93,19.93,0,0,1,2.74-2.86q1.52-1.33,3.31-2.85c1.11-1,2.07-1.78,2.85-2.47a18.77,18.77,0,0,0,1.9-1.92,7.2,7.2,0,0,0,1.06-1.66,4,4,0,0,0,.33-1.64,2.46,2.46,0,0,0-.68-1.78,2.34,2.34,0,0,0-1.77-.72,6.61,6.61,0,0,0-3,.72A16.51,16.51,0,0,0,115,75.36l-1.91-4.45a14,14,0,0,1,4.48-2.82A13.24,13.24,0,0,1,122.18,67.26Z"/><path class="cls-1" d="M150.91,67.92,147.15,85h2.72l-1.08,4.92H146l-1.43,6.34h-5.28l1.38-6.34H129.63l.94-4.5c.79-1.21,1.76-2.56,2.9-4.08s2.39-3.06,3.73-4.64,2.73-3.14,4.17-4.67,2.86-2.9,4.25-4.13Zm-6.81,7.2c-.65.68-1.33,1.42-2,2.21s-1.43,1.62-2.15,2.48-1.42,1.73-2.11,2.62-1.32,1.75-1.91,2.59h6Z"/><path class="cls-2" d="M43.79,65.08c4.12,0,8.48-2.92,9.74-6.6s-1.07-6.71-5.19-6.74-8.49,2.91-9.75,6.6S39.66,65,43.79,65.08Z"/><path class="cls-2" d="M24.48,81.36c-1.25,3.68,1.07,6.7,5.2,6.74s8.49-2.92,9.74-6.6-1.07-6.7-5.2-6.74S25.74,77.68,24.48,81.36Z"/><path class="cls-2" d="M79.68,98.17c-1.26,3.68,1.08,6.7,5.19,6.74s8.5-2.92,9.75-6.6-1.07-6.7-5.2-6.74S80.93,94.48,79.68,98.17Z"/><path class="cls-2" d="M53.69,115c4.13,0,8.49-2.91,9.75-6.6s-1.08-6.7-5.2-6.74-8.49,2.92-9.74,6.6S49.57,115,53.69,115Z"/><path class="cls-2" d="M37.28,104.81c4.12,0,8.49-2.92,9.74-6.61s-1.07-6.7-5.2-6.74-8.48,2.92-9.74,6.6S33.15,104.77,37.28,104.81Z"/><path class="cls-2" d="M77.4,88.45c1.25-3.68-1.08-6.7-5.2-6.74s-8.49,2.92-9.74,6.6,1.06,6.7,5.19,6.74S76.14,92.13,77.4,88.45Z"/><path class="cls-2" d="M64.55,74.35c1.26-3.69-1.07-6.7-5.2-6.74s-8.48,2.91-9.74,6.6,1.07,6.7,5.2,6.74S63.3,78,64.55,74.35Z"/><path class="cls-3" d="M148.93,41.19c-5.08-24.37-26.12-34.87-28.81-36.12h0L119.94,5l-.09,0h0C92.88-6.85,56,3,30.12,28.85,14.25,44.72,3.55,65.52.75,85.9c-.27,2-.46,3.95-.58,5.86S0,95.64,0,97.63a64.69,64.69,0,0,0,6.56,28.29l.37.7.25.44c8.49,16.12,23.39,26.54,42,29.35a68.06,68.06,0,0,0,10,.74l-6.69-26c-13.31-1.38-24.24-7.88-31-18.63l-.18-.28-.52-.83a46.1,46.1,0,0,1-6.16-21l-.06-4.49.28-4.5a64.37,64.37,0,0,1,1.56-9A78.88,78.88,0,0,1,37.14,36.34C47.32,26.16,60,18.93,72.76,16c11.86-2.71,23.18-1.73,32.72,2.86h0A38.36,38.36,0,0,1,127.7,41.19h-9l20,20.1,17.56-20.1Z"/><path class="cls-3" d="M108.17,107.45c-.66.72-1.33,1.43-2,2.12-10.67,10.68-23.49,17.82-36.5,20.58l-10.5,27c22,0,44.76-10.41,63.93-29.56a110.89,110.89,0,0,0,16-20.14Z"/><path class="cls-2" d="M654.16,76.1H641.42l-4.87,15.46h-8.7L658.7,51.64H644.32L611,93.8l-3,9.14h25l-2.71,8.57H643l2.71-8.57h5.19l3.65-11.38h-5.2Zm-8.61-21.92Zm4.77,40.45-1.69,5.26h-5.2l-2.68,8.55H634.4l2.71-8.55h-25L614,94l31.15-39.36h7.34L621.64,94.63H638.8l4.87-15.49H650l-4.87,15.49Z"/><path class="cls-2" d="M600.33,86.93l0,0c6-5.1,13.45-11.46,14.52-20.12a14.07,14.07,0,0,0-3.16-11.27,14.42,14.42,0,0,0-11-4.6,24.65,24.65,0,0,0-23.69,17l-.65,2h11.92l.35-1c1.53-4.22,5-6.84,9.15-6.84a4.7,4.7,0,0,1,3.59,1.34,4,4,0,0,1,.78,3.29c-.42,3.59-3,7.08-9.36,12.45l-27.08,23.18-2.9,9.16h37.53l3.52-11.29h-19l14.92-12.88Zm-23.62,16.33h23l-1.63,5.18H567l1.38-4.35L594.79,81.5c5.79-4.93,9.77-9.26,10.41-14.4a7.12,7.12,0,0,0-1.52-5.7,7.72,7.72,0,0,0-5.89-2.35,12.7,12.7,0,0,0-11.61,7.81h-5.51a21.61,21.61,0,0,1,20-12.91,11.42,11.42,0,0,1,8.72,3.57,10.88,10.88,0,0,1,2.42,8.88c-.91,7.5-7.9,13.44-13.51,18.22Z"/><path class="cls-2" d="M560.21,61.56h2.26l2.86-8.9h-3.25c-5.33,0-8.9.87-11.58,2.82s-4.79,5.3-6.48,10.63l-.68,2.21h-5.27l-2.74,8.55h5.27L530,110.49h9.8l10.61-33.62h7.26l2.71-8.55h-7.25l.08-.26C554.59,63.48,555.88,61.56,560.21,61.56Z"/><path class="cls-2" d="M517.09,100.57c-.83-1.13-.33-3.27.33-5.42l13.47-42.49H521L507.34,96c-1.57,5-1.49,8.58.24,10.92s5.25,3.58,10.88,3.58h.36l2.77-8.76h-.68C518.91,101.73,517.67,101.35,517.09,100.57Z"/><path class="cls-2" d="M489.54,67.56a23.29,23.29,0,0,0-15.07,4.92c-3.94,3.19-6.92,7.94-8.85,14.12L464,91.79c-1.89,6.12-1.53,11.39,1,14.84,2.21,3,6,4.59,11.08,4.59,6.34,0,11.61-1.82,15.68-5.41,3.57-3.14,6.32-7.76,8.18-13.72l1.63-5.19h0c2-6.29,1.7-11.41-.78-14.79C498.59,69.13,494.71,67.56,489.54,67.56Zm2.32,19.21-1.57,4.78c-3.05,9.16-8.15,11.09-11.89,11.09-2.31,0-3.95-.64-4.85-1.89-1.27-1.75-1.22-4.74.13-8.89l1.58-4.78c2.4-7.2,6.39-10.85,11.86-10.85,2.28,0,3.9.64,4.81,1.9C493.18,79.86,493.15,82.84,491.86,86.77Z"/><path class="cls-2" d="M447.08,51.93a27.08,27.08,0,0,0-17.94,6.22c-5.17,4.36-9.23,11.1-12.07,20.05l-2.16,6.85c-2.83,9-2.57,16.21.76,20.75,2.6,3.54,7.06,5.42,12.9,5.42,7.22,0,13.07-2,17.89-6.07,5-4.26,8.8-10.69,11.54-19.65l1.6-5.17H437.88L435,89.64H446.2c-3.42,8.36-8.2,12.27-15,12.27-3,0-5.08-.8-6.28-2.45-1.85-2.53-1.69-7.28.49-14.11l2.28-7.25c3.66-11.5,9-16.86,16.69-16.86,2.86,0,5,.72,6.23,2.14s1.9,4,1.53,7.37l-.07.55h10.2l.07-.41c1-5.87.07-10.74-2.74-14.08S452.6,51.93,447.08,51.93Z"/><path class="cls-2" d="M382,68.32l-17.7,28-1.4-28h-10l2.59,42c-3.82,5.76-6.23,6.69-11.91,6.69h-.37l-2.85,9.08H341c11.59,0,15.94-2.63,23.28-14.05h0l28.26-43.75Z"/><path class="cls-2" d="M343.5,86.9h0c2-6.29,1.71-11.41-.78-14.79-2.18-3-6.07-4.55-11.24-4.55a23.33,23.33,0,0,0-15.07,4.92c-3.94,3.19-6.93,7.94-8.88,14.12l-1.6,5.19c-1.9,6.12-1.54,11.39,1,14.84,2.22,3,6.05,4.59,11.08,4.59,6.34,0,11.62-1.82,15.68-5.41,3.57-3.14,6.33-7.76,8.18-13.72Zm-9.7-.13-1.57,4.78c-1.37,4.14-4.75,11.09-11.89,11.09-2.31,0-3.94-.64-4.85-1.89-1.27-1.75-1.22-4.74.14-8.89l1.57-4.78c2.4-7.2,6.39-10.85,11.86-10.85,2.28,0,3.9.64,4.81,1.9C335.12,79.86,335.1,82.84,333.8,86.77Z"/><polygon class="cls-2" points="309.54 52.66 298.95 52.66 295.78 62.64 306.39 62.64 309.54 52.66"/><path class="cls-2" d="M280.94,110.8c-1.35,4.27-3,6.59-7.95,6.59h-.36l-2.74,8.73h.68c11.54,0,16.29-3.27,19.55-13.44l14.05-44.36h-9.7Z"/><path class="cls-2" d="M276.78,71.52c-1.89-2.59-5.27-4-9.76-4a16.19,16.19,0,0,0-10.47,3.22l.77-2.46h-9.77l-13.38,42.17h9.89L252,85.41c1.77-5.55,5.94-9,10.9-9,2.28,0,3.79.54,4.6,1.64,1,1.39,1,3.8-.07,7.16l-8.08,25.29h9.77l8.31-26.3C279.12,78.7,278.92,74.44,276.78,71.52Z"/><polygon class="cls-2" points="215.75 61.97 241.02 61.97 244.03 52.66 208.13 52.66 189.83 110.49 225.69 110.49 228.57 101.24 203.32 101.24 208.46 85.21 231.26 85.21 234.17 75.96 211.34 75.96 215.75 61.97"/></g></g></svg>