<svg xmlns="http://www.w3.org/2000/svg" viewBox="0 0 468.87 346.94"><defs><style>.cls-1{fill:#e60012;}.cls-2,.cls-3{fill:#16902e;}.cls-3{isolation:isolate;}</style></defs><title>logo3</title><g id="レイヤー_2" data-name="レイヤー 2"><g id="レイヤー_1-2" data-name="レイヤー 1"><path class="cls-1" d="M310.19,94a9.94,9.94,0,0,1,7,2.78,9,9,0,0,1,2.05,3,9.17,9.17,0,0,1,.74,3.66,15.77,15.77,0,0,1-.43,3.88,11.15,11.15,0,0,1-1.4,3.32,18.08,18.08,0,0,1-2.63,3.26c-1.09,1.11-2.44,2.34-4,3.72-.94.8-1.89,1.56-2.84,2.28s-1.9,1.47-2.81,2.23-1.81,1.58-2.69,2.43a21.76,21.76,0,0,0-2.44,2.89h15.51l-1.56,7.09h-24a22.8,22.8,0,0,1,1.62-6.24,21,21,0,0,1,2.84-4.77,28.76,28.76,0,0,1,3.82-4q2.13-1.86,4.63-4,2.34-2,4-3.46a25.5,25.5,0,0,0,2.66-2.68,10,10,0,0,0,1.48-2.32,5.61,5.61,0,0,0,.46-2.29,3.46,3.46,0,0,0-1-2.49,3.31,3.31,0,0,0-2.47-1,9.44,9.44,0,0,0-4.17,1,22.79,22.79,0,0,0-4.43,3l-2.65-6.22a19.49,19.49,0,0,1,6.24-3.95A18.76,18.76,0,0,1,310.19,94Z"/><path class="cls-1" d="M350.34,94.89l-5.26,23.89h3.8l-1.51,6.87h-3.85l-2,8.86h-7.39l1.93-8.86H320.6l1.31-6.29c1.11-1.68,2.46-3.57,4.06-5.69s3.34-4.28,5.21-6.49,3.82-4.38,5.83-6.52,4-4,5.93-5.77ZM340.82,105c-.92.94-1.86,2-2.84,3.08s-2,2.26-3,3.45-2,2.43-2.94,3.67-1.85,2.45-2.68,3.62h8.43Z"/><path class="cls-2" d="M200.68,90.92c5.76.06,11.85-4.07,13.6-9.22s-1.49-9.37-7.25-9.42-11.86,4.07-13.62,9.22S194.91,90.87,200.68,90.92Z"/><path class="cls-2" d="M173.7,113.67c-1.75,5.14,1.5,9.36,7.26,9.42s11.86-4.08,13.61-9.23-1.49-9.36-7.26-9.41S175.46,108.52,173.7,113.67Z"/><path class="cls-2" d="M250.81,137.15c-1.75,5.15,1.51,9.36,7.26,9.41s11.87-4.07,13.62-9.22-1.5-9.35-7.27-9.41S252.57,132,250.81,137.15Z"/><path class="cls-2" d="M214.51,160.73c5.76.05,11.86-4.08,13.62-9.23s-1.51-9.36-7.26-9.42-11.86,4.08-13.62,9.22S208.75,160.67,214.51,160.73Z"/><path class="cls-2" d="M191.58,146.42c5.76.06,11.86-4.08,13.61-9.22s-1.5-9.36-7.26-9.42-11.86,4.08-13.61,9.22S185.81,146.37,191.58,146.42Z"/><path class="cls-2" d="M247.63,123.57c1.75-5.14-1.5-9.36-7.27-9.42s-11.85,4.08-13.61,9.22,1.49,9.37,7.26,9.42S245.87,128.72,247.63,123.57Z"/><path class="cls-2" d="M229.68,103.87c1.76-5.15-1.49-9.36-7.26-9.42s-11.85,4.07-13.61,9.22,1.49,9.37,7.26,9.42S227.93,109,229.68,103.87Z"/><path class="cls-3" d="M347.56,57.55c-7.09-34-36.48-48.72-40.24-50.47h0L307.07,7l-.13,0h0C269.25-9.56,217.71,4.17,181.57,40.3c-22.16,22.17-37.11,51.23-41,79.72-.38,2.76-.65,5.51-.82,8.17s-.26,5.43-.23,8.21a90.27,90.27,0,0,0,9.16,39.52l.52,1,.35.62c11.86,22.52,32.67,37.08,58.61,41a94.37,94.37,0,0,0,14,1l-9.35-36.33c-18.59-1.93-33.86-11-43.37-26l-.25-.39-.72-1.15a64.52,64.52,0,0,1-8.61-29.34l-.08-6.27.39-6.3a89.25,89.25,0,0,1,2.18-12.57c4.53-18.27,14.86-36.16,29.08-50.39s31.9-24.33,49.77-28.45c16.57-3.8,32.38-2.42,45.72,4h0a53.59,53.59,0,0,1,31,31.24H305.33l28,28.08,24.53-28.08Z"/><path class="cls-3" d="M290.62,150.12c-.93,1-1.86,2-2.83,3C272.87,168,255,178,236.79,181.83l-14.66,37.72c30.66,0,62.53-14.54,89.3-41.29a155.24,155.24,0,0,0,22.33-28.14Z"/><path class="cls-2" d="M464.33,296.93H451.59l-4.87,15.45H438l30.85-39.91H454.49l-33.36,42.15-3,9.14h25l-2.71,8.57h12.74l2.71-8.57H461l3.65-11.38h-5.2ZM455.72,275Zm4.77,40.44-1.69,5.27h-5.19l-2.69,8.54h-6.35l2.71-8.54h-25l1.85-5.85,31.16-39.36h7.33l-30.84,39.94H449L453.84,300h6.36l-4.87,15.48Z"/><path class="cls-2" d="M410.5,307.75l0,0c6-5.1,13.44-11.45,14.51-20.11a14.1,14.1,0,0,0-3.15-11.27,14.43,14.43,0,0,0-11-4.6,24.62,24.62,0,0,0-23.68,17l-.65,2h11.91l.35-1c1.53-4.22,5-6.84,9.15-6.84a4.65,4.65,0,0,1,3.59,1.35,4,4,0,0,1,.79,3.28c-.42,3.59-3,7.08-9.37,12.45L375.9,323.18,373,332.33h37.53L414,321h-19L410,308.16Zm-23.62,16.33h23l-1.64,5.18H377.16l1.38-4.34L405,302.33c5.79-4.93,9.78-9.27,10.41-14.4a7.14,7.14,0,0,0-1.52-5.71,7.76,7.76,0,0,0-5.89-2.35,12.71,12.71,0,0,0-11.61,7.82h-5.51a21.61,21.61,0,0,1,20-12.91,11.39,11.39,0,0,1,8.72,3.56,10.87,10.87,0,0,1,2.42,8.88c-.91,7.5-7.89,13.45-13.51,18.23Z"/><path class="cls-2" d="M370.38,282.39h2.26l2.86-8.9h-3.25c-5.32,0-8.89.86-11.58,2.81s-4.79,5.3-6.48,10.63l-.68,2.21h-5.27l-2.74,8.55h5.28l-10.65,33.62h9.8l10.61-33.62h7.26l2.71-8.55h-7.25l.08-.25C364.76,284.3,366.06,282.39,370.38,282.39Z"/><path class="cls-2" d="M327.26,321.39c-.83-1.13-.33-3.27.33-5.42l13.47-42.48h-9.85l-13.7,43.32c-1.56,5-1.48,8.58.24,10.93s5.25,3.57,10.88,3.57H329l2.76-8.75h-.68C329.09,322.56,327.84,322.18,327.26,321.39Z"/><path class="cls-2" d="M299.71,288.38a23.31,23.31,0,0,0-15.07,4.92c-3.94,3.19-6.91,7.94-8.85,14.12l-1.63,5.2c-1.9,6.12-1.54,11.39,1,14.83,2.21,3,6,4.59,11.08,4.59,6.34,0,11.61-1.82,15.68-5.4,3.57-3.15,6.32-7.77,8.18-13.73l1.63-5.19h0c2-6.29,1.71-11.4-.78-14.79C308.77,290,304.88,288.38,299.71,288.38ZM302,307.59l-1.57,4.78c-3,9.17-8.15,11.09-11.89,11.09-2.31,0-3.94-.63-4.85-1.88-1.27-1.75-1.22-4.74.14-8.89l1.57-4.78c2.4-7.21,6.39-10.86,11.86-10.86,2.28,0,3.9.64,4.81,1.91C303.35,300.68,303.32,303.67,302,307.59Z"/><path class="cls-2" d="M257.26,272.76A27.05,27.05,0,0,0,239.31,279c-5.16,4.35-9.22,11.09-12.07,20l-2.15,6.85c-2.84,9-2.58,16.2.75,20.74,2.6,3.55,7.06,5.42,12.9,5.42,7.22,0,13.08-2,17.9-6.07,5-4.25,8.8-10.68,11.53-19.65l1.6-5.16H248.05l-2.9,9.3h11.22c-3.42,8.37-8.19,12.27-15,12.27-3,0-5.08-.8-6.29-2.44-1.85-2.54-1.68-7.29.49-14.11l2.28-7.26c3.66-11.5,9-16.85,16.69-16.85,2.87,0,5,.72,6.23,2.14s1.9,4,1.53,7.36l-.06.56h10.19l.07-.42c1-5.86.08-10.73-2.73-14.07S262.78,272.76,257.26,272.76Z"/><path class="cls-2" d="M192.17,289.14l-17.7,28-1.41-28h-10l2.58,42c-3.82,5.77-6.23,6.69-11.91,6.69h-.36l-2.86,9.08h.69c11.58,0,15.93-2.63,23.27-14.05h0l28.26-43.75Z"/><path class="cls-2" d="M153.68,307.72h0c2-6.29,1.7-11.4-.79-14.79-2.18-3-6.07-4.55-11.24-4.55a23.29,23.29,0,0,0-15.06,4.92c-4,3.19-6.93,7.94-8.89,14.13l-1.6,5.19c-1.89,6.12-1.54,11.39,1,14.83,2.21,3,6,4.59,11.07,4.59,6.34,0,11.62-1.82,15.69-5.4,3.57-3.15,6.32-7.77,8.17-13.73Zm-9.7-.13-1.58,4.78c-1.37,4.14-4.74,11.09-11.89,11.09-2.31,0-3.94-.63-4.84-1.88-1.27-1.75-1.23-4.74.13-8.89l1.57-4.78c2.4-7.21,6.39-10.86,11.86-10.86,2.28,0,3.9.64,4.82,1.91C145.29,300.68,145.27,303.67,144,307.59Z"/><polygon class="cls-2" points="119.71 273.49 109.13 273.49 105.95 283.47 116.57 283.47 119.71 273.49"/><path class="cls-2" d="M91.11,331.62c-1.35,4.28-3,6.59-7.94,6.59H82.8l-2.74,8.73h.69c11.53,0,16.28-3.27,19.54-13.44l14.06-44.36h-9.71Z"/><path class="cls-2" d="M87,292.34c-1.89-2.59-5.27-4-9.76-4a16.19,16.19,0,0,0-10.47,3.22l.77-2.46H57.73L44.35,331.31h9.88l7.89-25.07c1.77-5.56,5.94-9,10.9-9,2.29,0,3.79.53,4.6,1.64,1,1.38,1,3.79-.06,7.15l-8.08,25.29h9.77l8.3-26.3C89.29,299.53,89.09,295.26,87,292.34Z"/><polygon class="cls-2" points="25.92 282.8 51.2 282.8 54.2 273.49 18.31 273.49 0 331.31 35.86 331.31 38.74 322.06 13.5 322.06 18.63 306.03 41.43 306.03 44.34 296.78 21.51 296.78 25.92 282.8"/></g></g></svg>