<?xml version="1.0" encoding="utf-8"?>
<!-- Generator: Adobe Illustrator 24.0.0, SVG Export Plug-In . SVG Version: 6.00 Build 0)  -->
<svg version="1.1" id="レイヤー_1" xmlns="http://www.w3.org/2000/svg" xmlns:xlink="http://www.w3.org/1999/xlink" x="0px"
	 y="0px" viewBox="0 0 95.4 95.4" style="enable-background:new 0 0 95.4 95.4;" xml:space="preserve">
<style type="text/css">
	.st0{fill:#FFFFFF;}
</style>
<g>
	<g>
		<g>
			<path class="st0" d="M54.8,45.8C54.7,45.8,54.7,45.8,54.8,45.8c-1.9,0.1-3.3,1.5-3.3,3.3v39.5c0,1.9,1.5,3.4,3.4,3.4
				c1.9,0,3.4-1.5,3.4-3.4V49.2C58.2,47.3,56.6,45.8,54.8,45.8z M77.3,16.3c-0.5-0.6-0.5-1.4,0-2l6.3-7.3c0.9-1,0.1-2.6-1.2-2.6H53
				c-0.9,0-1.6,0.7-1.6,1.6v18.8c0,0.9,0.7,1.6,1.6,1.6h29.4c1.3,0,2.1-1.6,1.2-2.6L77.3,16.3z"/>
			<path class="st0" d="M29.3,25c5.9,0,10.6-4.7,10.6-10.6c0-5.9-4.7-10.6-10.6-10.6c-5.9,0-10.6,4.7-10.6,10.6
				C18.7,20.2,23.4,25,29.3,25z M55.9,31.3H21.5c-2.2,0-4,1.5-4.4,3.7l-4.1,22.1c-0.2,1.2,0,2.4,0.7,3.4l5.6,8.2
				c0.4,0.6,0.7,1.4,0.8,2.2l1.4,17c0.2,2.3,2.1,4.1,4.5,4.1H32c2.3,0,4.3-1.8,4.5-4.1l1.4-17.4c0-0.6,0.2-1.1,0.4-1.6l1.4-2.9
				c0.3-0.6,0.5-1.3,0.5-2V40.3h15.7c2.5,0,4.5-2,4.5-4.5C60.4,33.3,58.4,31.3,55.9,31.3z"/>
		</g>
	</g>
</g>
</svg>
